<svg width="109" height="286" viewBox="0 0 109 286" fill="none" xmlns="http://www.w3.org/2000/svg">
<g filter="url(#filter0_d_2110_5)">
<path d="M8.83333 15C8.83333 20.891 13.609 25.6667 19.5 25.6667C25.391 25.6667 30.1667 20.891 30.1667 15C30.1667 9.10896 25.391 4.33333 19.5 4.33333C13.609 4.33333 8.83333 9.10896 8.83333 15ZM0.333333 263C0.333333 268.891 5.10896 273.667 11 273.667C16.891 273.667 21.6667 268.891 21.6667 263C21.6667 257.109 16.891 252.333 11 252.333C5.10896 252.333 0.333333 257.109 0.333333 263ZM11.8146 264.827C14.48 263.638 17.0732 262.384 19.595 261.069L17.7449 257.522C15.2962 258.8 12.7767 260.018 10.1854 261.173L11.8146 264.827ZM34.3142 252.152C39.1063 248.804 43.5734 245.202 47.7231 241.378L45.0124 238.436C40.9945 242.139 36.6676 245.628 32.0233 248.873L34.3142 252.152ZM59.5716 228.857C63.2569 224.387 66.598 219.711 69.6044 214.865L66.2056 212.756C63.2913 217.453 60.0542 221.984 56.4853 226.312L59.5716 228.857ZM77.7097 199.686C80.0892 194.451 82.1324 189.082 83.8498 183.618L80.0339 182.419C78.3638 187.731 76.3783 192.948 74.0682 198.031L77.7097 199.686ZM88.0425 166.949C89.1216 161.316 89.8832 155.628 90.3376 149.924L86.3502 149.607C85.9072 155.167 85.1649 160.71 84.1139 166.196L88.0425 166.949ZM90.7887 132.76C90.6363 127.016 90.1819 121.297 89.4359 115.643L85.4702 116.166C86.1981 121.683 86.6414 127.263 86.7901 132.866L90.7887 132.76ZM86.2944 98.7572C84.9386 93.1472 83.2877 87.6473 81.3523 82.3016L77.5912 83.6633C79.4756 88.8681 81.0844 94.227 82.4063 99.6969L86.2944 98.7572ZM74.5694 66.5038C71.967 61.3207 69.0679 56.3511 65.8835 51.6452L62.5707 53.8869C65.6542 58.4438 68.4666 63.2636 70.9947 68.2986L74.5694 66.5038ZM55.2324 38.0899C51.3165 33.8004 47.1022 29.8527 42.6028 26.3051L40.1262 29.4461C44.4462 32.8523 48.5018 36.65 52.2783 40.7868L55.2324 38.0899ZM28.1123 16.8414C25.5637 15.4922 22.9468 14.2597 20.2635 13.1515L18.7365 16.8485C21.3008 17.9076 23.8028 19.0859 26.2408 20.3766L28.1123 16.8414Z" fill="white"/>
</g>
<defs>
<filter id="filter0_d_2110_5" x="0.333984" y="0.333008" width="108.455" height="285.334" filterUnits="userSpaceOnUse" color-interpolation-filters="sRGB">
<feFlood flood-opacity="0" result="BackgroundImageFix"/>
<feColorMatrix in="SourceAlpha" type="matrix" values="0 0 0 0 0 0 0 0 0 0 0 0 0 0 0 0 0 0 127 0" result="hardAlpha"/>
<feOffset dx="10" dy="4"/>
<feGaussianBlur stdDeviation="4"/>
<feComposite in2="hardAlpha" operator="out"/>
<feColorMatrix type="matrix" values="0 0 0 0 0.108987 0 0 0 0 0.230957 0 0 0 0 0.194366 0 0 0 0.15 0"/>
<feBlend mode="normal" in2="BackgroundImageFix" result="effect1_dropShadow_2110_5"/>
<feBlend mode="normal" in="SourceGraphic" in2="effect1_dropShadow_2110_5" result="shape"/>
</filter>
</defs>
</svg>
