<svg width="100%" height="100%" viewBox="0 0 31 31" fill="#E8EAED" xmlns="http://www.w3.org/2000/svg">
<path d="M0 31V23.6806L22.7333 0.990278C23.0778 0.674537 23.4581 0.430556 23.8743 0.258333C24.2905 0.0861111 24.7282 0 25.1875 0C25.6468 0 26.0917 0.0861111 26.5222 0.258333C26.9528 0.430556 27.3259 0.688889 27.6417 1.03333L30.0097 3.44444C30.3542 3.76019 30.6053 4.13333 30.7632 4.56389C30.9211 4.99444 31 5.425 31 5.85556C31 6.31481 30.9211 6.75255 30.7632 7.16875C30.6053 7.58495 30.3542 7.96528 30.0097 8.30972L7.31944 31H0ZM25.1444 8.26667L27.5556 5.85556L25.1444 3.44444L22.7333 5.85556L25.1444 8.26667Z"/>
</svg>
