<svg width="128" height="128" viewBox="0 0 128 128" fill="none" xmlns="http://www.w3.org/2000/svg">
<path fill-rule="evenodd" clip-rule="evenodd" d="M107.657 24.0031C110.625 23.8956 112.873 26.5658 111.668 31.3643L97.189 99.1648C96.1782 103.983 93.2461 105.136 89.1866 102.911L67.1264 86.7157L65.0889 88.6839C65.0773 88.6951 65.0657 88.7062 65.0542 88.7174C60.7558 92.8696 57.1974 96.3069 56.5219 96.9637L56.4395 97.0437C55.2483 98.2009 54.2644 99.1568 52.1072 99.1568C49.8676 99.1568 49.6806 98.4973 49.2308 96.9116C49.1063 96.4727 48.9617 95.9627 48.7478 95.3762L40.6326 70.6593L19.4236 64.0799C14.7121 62.6458 14.6778 59.4299 20.4817 57.1163L105.519 24.5287C106.247 24.2004 106.971 24.0279 107.657 24.0031ZM91.7646 39.1817C92.6595 38.6425 93.5285 38.4151 94.168 38.4239C95.2337 38.4386 95.6668 39.1119 94.5439 40.1021L53.611 76.7959L52.0159 93.6846L43.9625 69.1466L91.7646 39.1817Z" fill="white"/>
</svg>
