<svg width="100%" height="100%" viewBox="0 0 41 51" fill="white" xmlns="http://www.w3.org/2000/svg">
<path d="M10.25 40.8H30.75V35.7H10.25V40.8ZM10.25 30.6H30.75V25.5H10.25V30.6ZM5.125 51C3.71562 51 2.50911 50.5006 1.50547 49.5019C0.501823 48.5031 0 47.3025 0 45.9V5.1C0 3.6975 0.501823 2.49687 1.50547 1.49812C2.50911 0.499375 3.71562 0 5.125 0H25.625L41 15.3V45.9C41 47.3025 40.4982 48.5031 39.4945 49.5019C38.4909 50.5006 37.2844 51 35.875 51H5.125ZM23.0625 17.85V5.1H5.125V45.9H35.875V17.85H23.0625Z" />
</svg>
