<svg width="100%" height="100%" viewBox="0 0 49 48" fill="white" xmlns="http://www.w3.org/2000/svg">
<path d="M6 21.3333C2.68629 21.3333 0 18.647 0 15.3333V6.00001C0 2.6863 2.68629 0 6 0H15.7778C19.0915 0 21.7778 2.68629 21.7778 6V15.3333C21.7778 18.647 19.0915 21.3333 15.7778 21.3333H6ZM6 48C2.68629 48 0 45.3137 0 42V32.6667C0 29.353 2.68629 26.6667 6 26.6667H15.7778C19.0915 26.6667 21.7778 29.353 21.7778 32.6667V42C21.7778 45.3137 19.0915 48 15.7778 48H6ZM33.2222 21.3333C29.9085 21.3333 27.2222 18.647 27.2222 15.3333V6.00001C27.2222 2.6863 29.9085 0 33.2222 0H43C46.3137 0 49 2.68629 49 6V15.3333C49 18.647 46.3137 21.3333 43 21.3333H33.2222ZM33.2222 48C29.9085 48 27.2222 45.3137 27.2222 42V32.6667C27.2222 29.353 29.9085 26.6667 33.2222 26.6667H43C46.3137 26.6667 49 29.353 49 32.6667V42C49 45.3137 46.3137 48 43 48H33.2222Z" />
</svg>
