<svg width="100%" height="100%" viewBox="0 0 49 48" fill="white" xmlns="http://www.w3.org/2000/svg">
<path d="M6 30.5455C2.68629 30.5455 0 27.8592 0 24.5455V23.4545C0 20.1408 2.68629 17.4545 6 17.4545H43C46.3137 17.4545 49 20.1408 49 23.4545V24.5455C49 27.8592 46.3137 30.5455 43 30.5455H6ZM6 13.0909C2.68629 13.0909 0 10.4046 0 7.09091V6C0 2.68629 2.68629 0 6 0H43C46.3137 0 49 2.68629 49 6V7.09091C49 10.4046 46.3137 13.0909 43 13.0909H6Z"/>
<path d="M6 48C2.68629 48 0 45.3137 0 42V40.9091C0 37.5954 2.68629 34.9091 6 34.9091H43C46.3137 34.9091 49 37.5954 49 40.9091V42C49 45.3137 46.3137 48 43 48H6Z"/>
</svg>
