<svg width="100%" height="100%" viewBox="0 0 48 48" fill="white" xmlns="http://www.w3.org/2000/svg">
<path d="M44.2667 48L27.4667 31.2C26.1333 32.2667 24.6 33.1111 22.8667 33.7333C21.1333 34.3556 19.2889 34.6667 17.3333 34.6667C12.4889 34.6667 8.38889 32.9889 5.03333 29.6333C1.67778 26.2778 0 22.1778 0 17.3333C0 12.4889 1.67778 8.38889 5.03333 5.03333C8.38889 1.67778 12.4889 0 17.3333 0C22.1778 0 26.2778 1.67778 29.6333 5.03333C32.9889 8.38889 34.6667 12.4889 34.6667 17.3333C34.6667 19.2889 34.3556 21.1333 33.7333 22.8667C33.1111 24.6 32.2667 26.1333 31.2 27.4667L48 44.2667L44.2667 48ZM17.3333 29.3333C20.6667 29.3333 23.5 28.1667 25.8333 25.8333C28.1667 23.5 29.3333 20.6667 29.3333 17.3333C29.3333 14 28.1667 11.1667 25.8333 8.83333C23.5 6.5 20.6667 5.33333 17.3333 5.33333C14 5.33333 11.1667 6.5 8.83333 8.83333C6.5 11.1667 5.33333 14 5.33333 17.3333C5.33333 20.6667 6.5 23.5 8.83333 25.8333C11.1667 28.1667 14 29.3333 17.3333 29.3333Z" />
</svg>
