<svg width="100%" height="100%" viewBox="0 0 66 46" fill="white" xmlns="http://www.w3.org/2000/svg">
<path d="M33 36.8C36.75 36.8 39.9375 35.4583 42.5625 32.775C45.1875 30.0917 46.5 26.8333 46.5 23C46.5 19.1667 45.1875 15.9083 42.5625 13.225C39.9375 10.5417 36.75 9.2 33 9.2C29.25 9.2 26.0625 10.5417 23.4375 13.225C20.8125 15.9083 19.5 19.1667 19.5 23C19.5 26.8333 20.8125 30.0917 23.4375 32.775C26.0625 35.4583 29.25 36.8 33 36.8ZM33 31.28C30.75 31.28 28.8375 30.475 27.2625 28.865C25.6875 27.255 24.9 25.3 24.9 23C24.9 20.7 25.6875 18.745 27.2625 17.135C28.8375 15.525 30.75 14.72 33 14.72C35.25 14.72 37.1625 15.525 38.7375 17.135C40.3125 18.745 41.1 20.7 41.1 23C41.1 25.3 40.3125 27.255 38.7375 28.865C37.1625 30.475 35.25 31.28 33 31.28ZM33 46C25.7 46 19.05 43.9172 13.05 39.7517C7.05 35.5861 2.7 30.0022 0 23C2.7 15.9978 7.05 10.4139 13.05 6.24833C19.05 2.08278 25.7 0 33 0C40.3 0 46.95 2.08278 52.95 6.24833C58.95 10.4139 63.3 15.9978 66 23C63.3 30.0022 58.95 35.5861 52.95 39.7517C46.95 43.9172 40.3 46 33 46Z"/>
</svg>
