<svg width="100%" height="100%" viewBox="0 0 53 36" fill="white" xmlns="http://www.w3.org/2000/svg">
<path d="M26.5 28.8C29.5114 28.8 32.071 27.75 34.179 25.65C36.2869 23.55 37.3409 21 37.3409 18C37.3409 15 36.2869 12.45 34.179 10.35C32.071 8.25 29.5114 7.2 26.5 7.2C23.4886 7.2 20.929 8.25 18.821 10.35C16.7131 12.45 15.6591 15 15.6591 18C15.6591 21 16.7131 23.55 18.821 25.65C20.929 27.75 23.4886 28.8 26.5 28.8ZM26.5 24.48C24.6932 24.48 23.1574 23.85 21.8926 22.59C20.6278 21.33 19.9955 19.8 19.9955 18C19.9955 16.2 20.6278 14.67 21.8926 13.41C23.1574 12.15 24.6932 11.52 26.5 11.52C28.3068 11.52 29.8426 12.15 31.1074 13.41C32.3722 14.67 33.0045 16.2 33.0045 18C33.0045 19.8 32.3722 21.33 31.1074 22.59C29.8426 23.85 28.3068 24.48 26.5 24.48ZM26.5 36C20.6379 36 15.2977 34.37 10.4795 31.11C5.66136 27.85 2.16818 23.48 0 18C2.16818 12.52 5.66136 8.15 10.4795 4.89C15.2977 1.63 20.6379 0 26.5 0C32.3621 0 37.7023 1.63 42.5205 4.89C47.3386 8.15 50.8318 12.52 53 18C50.8318 23.48 47.3386 27.85 42.5205 31.11C37.7023 34.37 32.3621 36 26.5 36ZM26.5 31.2C31.0371 31.2 35.2028 30.01 38.9972 27.63C42.7915 25.25 45.6924 22.04 47.7 18C45.6924 13.96 42.7915 10.75 38.9972 8.37C35.2028 5.99 31.0371 4.8 26.5 4.8C21.9629 4.8 17.7972 5.99 14.0028 8.37C10.2085 10.75 7.30758 13.96 5.3 18C7.30758 22.04 10.2085 25.25 14.0028 27.63C17.7972 30.01 21.9629 31.2 26.5 31.2Z" />
</svg>
