<svg width="100%" height="100%" viewBox="0 0 256 187" fill="#035964" xmlns="http://www.w3.org/2000/svg">
<path d="M197.818 116.875V81.8125H162.909V58.4375H197.818V23.375H221.091V58.4375H256V81.8125H221.091V116.875H197.818ZM93.0909 93.5C80.2909 93.5 69.3333 88.9224 60.2182 79.7672C51.103 70.612 46.5455 59.6063 46.5455 46.75C46.5455 33.8938 51.103 22.888 60.2182 13.7328C69.3333 4.5776 80.2909 0 93.0909 0C105.891 0 116.848 4.5776 125.964 13.7328C135.079 22.888 139.636 33.8938 139.636 46.75C139.636 59.6063 135.079 70.612 125.964 79.7672C116.848 88.9224 105.891 93.5 93.0909 93.5ZM0 187V154.275C0 147.652 1.69697 141.565 5.09091 136.013C8.48485 130.462 12.9939 126.225 18.6182 123.303C30.6424 117.265 42.8606 112.736 55.2727 109.716C67.6848 106.697 80.2909 105.188 93.0909 105.188C105.891 105.188 118.497 106.697 130.909 109.716C143.321 112.736 155.539 117.265 167.564 123.303C173.188 126.225 177.697 130.462 181.091 136.013C184.485 141.565 186.182 147.652 186.182 154.275V187H0ZM23.2727 163.625H162.909V154.275C162.909 152.132 162.376 150.184 161.309 148.431C160.242 146.678 158.836 145.315 157.091 144.341C146.618 139.081 136.048 135.137 125.382 132.507C114.715 129.877 103.952 128.562 93.0909 128.562C82.2303 128.562 71.4667 129.877 60.8 132.507C50.1333 135.137 39.5636 139.081 29.0909 144.341C27.3455 145.315 25.9394 146.678 24.8727 148.431C23.8061 150.184 23.2727 152.132 23.2727 154.275V163.625ZM93.0909 70.125C99.4909 70.125 104.97 67.8362 109.527 63.2586C114.085 58.681 116.364 53.1781 116.364 46.75C116.364 40.3219 114.085 34.819 109.527 30.2414C104.97 25.6638 99.4909 23.375 93.0909 23.375C86.6909 23.375 81.2121 25.6638 76.6545 30.2414C72.097 34.819 69.8182 40.3219 69.8182 46.75C69.8182 53.1781 72.097 58.681 76.6545 63.2586C81.2121 67.8362 86.6909 70.125 93.0909 70.125Z"/>
</svg>
