<svg width="100%" height="100%" viewBox="0 0 179 224" fill="#035964" xmlns="http://www.w3.org/2000/svg">
<path d="M44.75 179.2H134.25V156.8H44.75V179.2ZM44.75 134.4H134.25V112H44.75V134.4ZM22.375 224C16.2219 224 10.9544 221.807 6.57266 217.42C2.19089 213.033 0 207.76 0 201.6V22.4C0 16.24 2.19089 10.9667 6.57266 6.58C10.9544 2.19333 16.2219 0 22.375 0H111.875L179 67.2V201.6C179 207.76 176.809 213.033 172.427 217.42C168.046 221.807 162.778 224 156.625 224H22.375ZM100.688 78.4V22.4H22.375V201.6H156.625V78.4H100.688Z"/>
</svg>
