<svg width="100%" height="100%" viewBox="0 0 209 232" fill="white" xmlns="http://www.w3.org/2000/svg">
<path d="M108.108 179.141C100.4 186.846 91.0537 190.698 80.0695 190.698C69.0852 190.698 59.7389 186.846 52.0307 179.141C44.3224 171.436 40.4683 162.141 40.4683 151.258C40.4683 140.375 44.3224 131.081 52.0307 123.376L100.015 75.1235C107.723 67.4185 117.069 63.566 128.053 63.566C139.038 63.566 148.384 67.4185 156.092 75.1235C163.8 82.8284 167.654 92.1226 167.654 103.006C167.654 113.889 163.8 123.183 156.092 130.888L108.108 179.141ZM68.218 162.671C72.6503 167.102 77.227 168.691 81.9483 167.439C86.6697 166.187 89.8975 164.694 91.6318 162.96L107.53 146.78L84.4054 123.665L68.218 139.556C64.942 142.831 63.304 146.683 63.304 151.114C63.304 155.544 64.942 159.397 68.218 162.671ZM139.905 91.5928C135.473 87.1625 130.896 85.5733 126.174 86.8254C121.453 88.0774 118.225 89.5703 116.491 91.3039L100.593 107.484L123.717 130.599L139.905 114.708C143.181 111.433 144.819 107.581 144.819 103.15C144.819 98.7199 143.181 94.8675 139.905 91.5928ZM23.1248 231.149C16.7654 231.149 11.3215 228.886 6.7929 224.359C2.2643 219.832 0 214.391 0 208.034L0 46.2298C0 39.8732 2.2643 34.4316 6.7929 29.9049C11.3215 25.3782 16.7654 23.1149 23.1248 23.1149L71.6867 23.1149C74.1919 16.1804 78.3833 10.5943 84.2608 6.3566C90.1384 2.11887 96.7386 0 104.061 0C111.384 0 117.984 2.11887 123.862 6.3566C129.74 10.5943 133.931 16.1804 136.436 23.1149H184.998C191.357 23.1149 196.801 25.3782 201.33 29.9049C205.858 34.4316 208.123 39.8732 208.123 46.2298V208.034C208.123 214.391 205.858 219.832 201.33 224.359C196.801 228.886 191.357 231.149 184.998 231.149H23.1248ZM23.1248 208.034H184.998V46.2298L23.1248 46.2298L23.1248 208.034ZM104.061 37.5617C106.567 37.5617 108.638 36.7431 110.276 35.1058C111.914 33.4685 112.733 31.3978 112.733 28.8936C112.733 26.3895 111.914 24.3188 110.276 22.6815C108.638 21.0442 106.567 20.2255 104.061 20.2255C101.556 20.2255 99.4846 21.0442 97.8466 22.6815C96.2086 24.3188 95.3896 26.3895 95.3896 28.8936C95.3896 31.3978 96.2086 33.4685 97.8466 35.1058C99.4846 36.7431 101.556 37.5617 104.061 37.5617Z"/>
</svg>
