<svg width="34" height="27" viewBox="0 0 34 27" fill="none" xmlns="http://www.w3.org/2000/svg">
<path opacity="0.5" d="M3.4 27C2.465 27 1.66458 26.6695 0.99875 26.0086C0.332917 25.3477 0 24.5531 0 23.625V3.375C0 2.44688 0.332917 1.65234 0.99875 0.991406C1.66458 0.330469 2.465 0 3.4 0H30.6C31.535 0 32.3354 0.330469 33.0013 0.991406C33.6671 1.65234 34 2.44688 34 3.375V23.625C34 24.5531 33.6671 25.3477 33.0013 26.0086C32.3354 26.6695 31.535 27 30.6 27H3.4ZM17 15.1875L30.6 6.75V3.375L17 11.8125L3.4 3.375V6.75L17 15.1875Z" fill="white"/>
</svg>
