<svg width="100%" height="100%" viewBox="0 0 56 56" fill="#E8EAED" xmlns="http://www.w3.org/2000/svg">
<path d="M39.1969 36.3531C36.9195 36.3531 34.9838 35.541 33.3896 33.9168C31.7955 32.2926 30.9984 30.3203 30.9984 28C30.9984 25.6797 31.7955 23.7074 33.3896 22.0832C34.9838 20.459 36.9195 19.6469 39.1969 19.6469C41.4742 19.6469 43.41 20.459 45.0041 22.0832C46.5982 23.7074 47.3953 25.6797 47.3953 28C47.3953 30.3203 46.5982 32.2926 45.0041 33.9168C43.41 35.541 41.4742 36.3531 39.1969 36.3531ZM39.1969 30.7844C39.9712 30.7844 40.6202 30.5175 41.144 29.9839C41.6678 29.4502 41.9297 28.7889 41.9297 28C41.9297 27.2111 41.6678 26.5498 41.144 26.0161C40.6202 25.4825 39.9712 25.2156 39.1969 25.2156C38.4226 25.2156 37.7735 25.4825 37.2497 26.0161C36.726 26.5498 36.4641 27.2111 36.4641 28C36.4641 28.7889 36.726 29.4502 37.2497 29.9839C37.7735 30.5175 38.4226 30.7844 39.1969 30.7844ZM22.8 55.8437V47.7691C22.8 46.7945 23.0277 45.878 23.4832 45.0195C23.9387 44.161 24.5763 43.4765 25.3962 42.966C26.8537 42.0843 28.3909 41.3534 30.0078 40.7733C31.6247 40.1932 33.2758 39.764 34.961 39.4855L39.1969 44.7062L43.4327 39.4855C45.118 39.764 46.7577 40.1932 48.3518 40.7733C49.9459 41.3534 51.4718 42.0843 52.9293 42.966C53.7491 43.4765 54.3981 44.161 54.8764 45.0195C55.3546 45.878 55.5938 46.7945 55.5938 47.7691V55.8437H22.8ZM28.1973 50.275H36.6007L32.9114 45.6808C32.0916 45.9128 31.2945 46.2145 30.5202 46.5857C29.7459 46.957 28.9716 47.3514 28.1973 47.7691V50.275ZM41.793 50.275H50.1281V47.7691C49.3994 47.305 48.6479 46.8989 47.8736 46.5509C47.0993 46.2028 46.3022 45.9128 45.4823 45.6808L41.793 50.275ZM6.40313 50.275C4.90008 50.275 3.61338 49.7297 2.54303 48.6392C1.47268 47.5486 0.9375 46.2377 0.9375 44.7062V5.725C0.9375 4.19359 1.47268 2.88262 2.54303 1.79207C3.61338 0.701523 4.90008 0.15625 6.40313 0.15625H44.6625C46.1656 0.15625 47.4523 0.701523 48.5226 1.79207C49.593 2.88262 50.1281 4.19359 50.1281 5.725V19.6469C49.3994 18.7188 48.6023 17.837 47.7369 17.0017C46.8715 16.1664 45.8467 15.6095 44.6625 15.3311V5.725H6.40313V44.7062H17.7443C17.6077 45.2167 17.5052 45.7272 17.4369 46.2377C17.3685 46.7481 17.3344 47.2586 17.3344 47.7691V50.275H6.40313ZM11.8688 16.8625H30.9984C32.1827 15.9344 33.4807 15.2383 34.8927 14.7742C36.3046 14.3102 37.7394 14.0781 39.1969 14.0781V11.2937H11.8688V16.8625ZM11.8688 28H25.5328C25.5328 27.0255 25.6353 26.0741 25.8403 25.146C26.0452 24.2179 26.3299 23.313 26.6943 22.4312H11.8688V28ZM11.8688 39.1375H21.297C21.798 38.7198 22.3331 38.3486 22.9025 38.0237C23.4718 37.6989 24.0525 37.3973 24.6446 37.1188V33.5687H11.8688V39.1375ZM6.40313 44.7062V5.725V15.2615V14.0781V44.7062Z"/>
</svg>
