<svg width="29" height="30" viewBox="0 0 29 30" fill="none" xmlns="http://www.w3.org/2000/svg">
<path opacity="0.5" d="M27.3083 30C23.9519 30 20.6356 29.2431 17.3597 27.7292C14.0838 26.2153 11.1032 24.0694 8.41806 21.2917C5.73287 18.5139 3.65856 15.4306 2.19514 12.0417C0.731713 8.65278 0 5.22222 0 1.75C0 1.25 0.161111 0.833333 0.483333 0.5C0.805556 0.166667 1.20833 0 1.69167 0H8.21667C8.59259 0 8.92824 0.131944 9.22361 0.395833C9.51898 0.659722 9.69352 0.972222 9.74722 1.33333L10.7944 7.16667C10.8481 7.61111 10.8347 7.98611 10.7542 8.29167C10.6736 8.59722 10.5259 8.86111 10.3111 9.08333L6.40417 13.1667C6.9412 14.1944 7.57894 15.1875 8.31736 16.1458C9.05579 17.1042 9.86806 18.0278 10.7542 18.9167C11.5866 19.7778 12.4593 20.5764 13.3722 21.3125C14.2852 22.0486 15.2519 22.7222 16.2722 23.3333L20.0583 19.4167C20.3 19.1667 20.6155 18.9792 21.0049 18.8542C21.3942 18.7292 21.7769 18.6944 22.1528 18.75L27.7111 19.9167C28.087 20.0278 28.3958 20.2292 28.6375 20.5208C28.8792 20.8125 29 21.1389 29 21.5V28.25C29 28.75 28.8389 29.1667 28.5167 29.5C28.1944 29.8333 27.7917 30 27.3083 30Z" fill="white"/>
</svg>
