<svg width="100%" height="100%" viewBox="0 0 213 234" fill="none" xmlns="http://www.w3.org/2000/svg">
<g filter="url(#filter0_d_480_1692)">
<path d="M100.059 163L98.2794 141.7H96.5C79.6549 141.7 65.3603 135.842 53.6162 124.127C41.8721 112.412 36 98.1533 36 81.35C36 64.5467 41.8721 50.2875 53.6162 38.5725C65.3603 26.8575 79.6549 21 96.5 21C104.923 21 112.782 22.5679 120.077 25.7037C127.373 28.8396 133.779 33.1587 139.295 38.6612C144.811 44.1637 149.141 50.5537 152.285 57.8312C155.428 65.1087 157 72.9483 157 81.35C157 90.225 155.547 98.745 152.64 106.91C149.734 115.075 145.76 122.648 140.718 129.63C135.677 136.612 129.686 142.942 122.746 148.622C115.807 154.302 108.244 159.095 100.059 163ZM96.3221 120.222C98.3387 120.222 100.059 119.512 101.482 118.092C102.906 116.673 103.618 114.957 103.618 112.945C103.618 110.933 102.906 109.217 101.482 107.798C100.059 106.377 98.3387 105.667 96.3221 105.667C94.3054 105.667 92.5853 106.377 91.1618 107.798C89.7382 109.217 89.0265 110.933 89.0265 112.945C89.0265 114.957 89.7382 116.673 91.1618 118.092C92.5853 119.512 94.3054 120.222 96.3221 120.222ZM91.1618 97.68H101.838C101.838 94.13 102.194 91.645 102.906 90.225C103.618 88.805 105.872 86.2017 109.668 82.415C111.803 80.285 113.582 77.9775 115.006 75.4925C116.429 73.0075 117.141 70.345 117.141 67.505C117.141 61.47 115.095 56.9437 111.002 53.9263C106.91 50.9087 102.075 49.4 96.5 49.4C91.2804 49.4 86.8912 50.8496 83.3324 53.7487C79.7735 56.6479 77.2824 60.1683 75.8588 64.31L85.8235 68.215C86.4167 66.2033 87.5436 64.2212 89.2044 62.2687C90.8652 60.3162 93.2971 59.34 96.5 59.34C99.7029 59.34 102.105 60.2275 103.707 62.0025C105.308 63.7775 106.109 65.73 106.109 67.86C106.109 69.8717 105.516 71.6762 104.329 73.2738C103.143 74.8713 101.72 76.4983 100.059 78.155C95.9069 81.705 93.386 84.5154 92.4963 86.5863C91.6066 88.6571 91.1618 92.355 91.1618 97.68Z" fill="white"/>
</g>
<defs>
<filter id="filter0_d_480_1692" x="0.9375" y="0.375" width="211.75" height="232.75" filterUnits="userSpaceOnUse" color-interpolation-filters="sRGB">
<feFlood flood-opacity="0" result="BackgroundImageFix"/>
<feColorMatrix in="SourceAlpha" type="matrix" values="0 0 0 0 0 0 0 0 0 0 0 0 0 0 0 0 0 0 127 0" result="hardAlpha"/>
<feOffset dx="10.3125" dy="24.75"/>
<feGaussianBlur stdDeviation="22.6875"/>
<feComposite in2="hardAlpha" operator="out"/>
<feColorMatrix type="matrix" values="0 0 0 0 0 0 0 0 0 0.365495 0 0 0 0 0.321635 0 0 0 0.25 0"/>
<feBlend mode="normal" in2="BackgroundImageFix" result="effect1_dropShadow_480_1692"/>
<feBlend mode="normal" in="SourceGraphic" in2="effect1_dropShadow_480_1692" result="shape"/>
</filter>
</defs>
</svg>
